<?xml version="1.0" encoding="utf-8"?>
<?xml-stylesheet type="text/xsl" href="rss1.xsl"?>
<rss version="2.0" xmlns:atom="http://www.w3.org/2005/Atom" xmlns:content="http://purl.org/rss/1.0/modules/content/" xmlns:dc="http://purl.org/dc/elements/1.1/" xmlns:media="http://search.yahoo.com/mrss/">
<channel>
 <title>Getty</title>
 <link>http://www.gettyimg.com/</link>
 <atom:link href="http://www.gettyimg.com/" rel="self" type="application/rss+xml" />

 
                <item>
                <title><![CDATA[【PRORES HD】Summer Walker, SZA, &amp; Cardi B - No Love (Master ProRes - 1080p)]]></title>
                <link><![CDATA[https://sharemania.us/threads/summer-walker-sza-cardi-b-no-love-master-prores-1080p.226641/]]></link>
                <description><![CDATA[<article>
<blockquote class="messageText SelectQuoteContainer ugc baseHtml">
<img src="https://i.imgur.com/pgAy5um.jpeg" class="bbCodeImage LbImage" alt="[​IMG]" data-url="https://i.imgur.com/pgAy5um.jpeg" style=""> <br>
<br>
<div class="bbCodeBlock bbCodeQuote">
<aside>
<blockquote class="quoteContainer"><div class="quote">General<br>
Complete name : Summer Walker, SZA, &amp; Cardi B - No Love (Master ProRes - 1080p).mov<br>
Format : MPEG-4<br>
Format profile : QuickTime<br>
Codec ID : qt 2005.03 (qt )<br>
File size : 8.61 GiB<br>
Duration : 4 min 34 s<br>
Overall bit rate mode : Variable<br>
Overall bit rate : 269 Mb/s<br>
Encoded date : UTC 2022-05-12 16:39:56<br>
Tagged date : UTC 2022-05-12 16:40:08<br>
Writing library : Apple QuickTime<br>
TIM : 00:00:00:00<br>
TSC : 24<br>
TSZ : 1<br>
<br>
Video<br>
ID : 1<br>
Format : ProRes<br>
Format version : Version 1<br>
Format profile : 4444<br>
Codec ID : ap4h<br>
Duration : 4 min 34 s<br>
Bit rate mode : Variable<br>
Bit rate : 268 Mb/s<br>
Width : 1 920 pixels<br>
Height : 1 080 pixels<br>
Display aspect ratio : 16:9<br>
Frame rate mode : Constant<br>
Frame rate : 24.000 FPS<br>
Color space : YUV<br>
Chroma subsampling : 4:4:4<br>
Scan type : Progressive<br>
Bits/(Pixel*Frame) : 5.380<br>
Stream size : 8.56 GiB (99%)<br>
Writing library : adb0<br>
Language : English<br>
Encoded date : UTC 2022-05-12 16:39:56<br>
Tagged date : UTC 2022-05-12 16:39:56<br>
Color primaries : BT.709<br>
Transfer characteristics : BT.709<br>
Matrix coefficients : BT.709<br>
<br>
Audio<br>
ID : 2<br>
Format : PCM<br>
Format settings : Little / Signed<br>
Codec ID : sowt<br>
Duration : 4 min 34 s<br>
Bit rate mode : Constant<br>
Bit rate : 1 536 kb/s<br>
Channel(s) : 2 channels<br>
Channel layout : L R<br>
Sampling rate : 48.0 kHz<br>
Bit depth : 16 bits<br>
Stream size : 50.3 MiB (1%)<br>
Language : English<br>
Encoded date : UTC 2022-05-12 16:39:56<br>
Tagged date : UTC 2022-05-12 16:39:56<br>
<br>
Other<br>
ID : 3<br>
Type : Time code<br>
Format : QuickTime TC<br>
Duration : 4 min 34 s<br>
Frame rate : 24.000 FPS<br>
Time code of first frame : 00:00:00:00<br>
Time code, striped : Yes<br>
Language : English<br>
Encoded date : UTC 2022-05-12 16:39:56<br>
Tagged date : UTC 2022-05-12 16:39:56</div><div class="quoteExpand quoteCut">Click to expand...</div></blockquote>
</aside>
</div>
<div class="bbCodeBlock bbCodeVfcHH HiddenContent">
<div class="attribution type">Hidden Content:</div>
<blockquote>You must reply before you can see the hidden data contained here.</blockquote>
</div>
<div class="messageTextEndMarker">&nbsp;</div>
</blockquote>
</article>]]></description>
                <author><![CDATA[SanaYoku]]></author>
                </item>

                </channel></rss>